<svg xmlns="http://www.w3.org/2000/svg" xmlns:xlink="http://www.w3.org/1999/xlink" width="1080" zoomAndPan="magnify" viewBox="0 0 810 1012.49997" height="1350" preserveAspectRatio="xMidYMid meet" version="1.2"><defs/><g id="3f3da03607"><g style="fill:#ffffff;fill-opacity:1;"><g transform="translate(173.475661, 535.610463)"><path style="stroke:none" d="M 53.40625 0 L 41.84375 0 L 37.65625 -12.828125 L 16.328125 -12.828125 L 12.140625 0 L 0.84375 0 L 20.0625 -55.65625 L 34.1875 -55.65625 Z M 26.453125 -44.046875 L 19.296875 -22.078125 L 34.609375 -22.078125 L 27.40625 -44.046875 Z M 26.453125 -44.046875 "/></g></g><g style="fill:#ffffff;fill-opacity:1;"><g transform="translate(226.122511, 535.610463)"><path style="stroke:none" d="M 29.5 0.796875 C 21.832031 0.796875 16.144531 -1.019531 12.4375 -4.65625 C 8.738281 -8.300781 6.890625 -13.703125 6.890625 -20.859375 L 6.890625 -55.65625 L 17.671875 -55.65625 L 17.671875 -20.9375 C 17.671875 -16.875 18.644531 -13.828125 20.59375 -11.796875 C 22.550781 -9.765625 25.519531 -8.75 29.5 -8.75 C 37.394531 -8.75 41.34375 -12.8125 41.34375 -20.9375 L 41.34375 -55.65625 L 52.125 -55.65625 L 52.125 -20.859375 C 52.125 -13.703125 50.269531 -8.300781 46.5625 -4.65625 C 42.851562 -1.019531 37.164062 0.796875 29.5 0.796875 Z M 29.5 0.796875 "/></g><g transform="translate(285.126572, 535.610463)"><path style="stroke:none" d="M 44.625 -55.65625 L 44.625 -46.40625 L 28.546875 -46.40625 L 28.546875 0 L 17.59375 0 L 17.59375 -46.40625 L 1.515625 -46.40625 L 1.515625 -55.65625 Z M 44.625 -55.65625 "/></g></g><g style="fill:#ffffff;fill-opacity:1;"><g transform="translate(329.931592, 535.610463)"><path style="stroke:none" d="M 30.34375 0.796875 C 25.238281 0.796875 20.738281 -0.238281 16.84375 -2.3125 C 12.945312 -4.394531 9.894531 -7.578125 7.6875 -11.859375 C 5.476562 -16.140625 4.375 -21.460938 4.375 -27.828125 C 4.375 -34.203125 5.476562 -39.523438 7.6875 -43.796875 C 9.894531 -48.078125 12.945312 -51.253906 16.84375 -53.328125 C 20.738281 -55.410156 25.238281 -56.453125 30.34375 -56.453125 C 35.445312 -56.453125 39.9375 -55.414062 43.8125 -53.34375 C 47.695312 -51.28125 50.738281 -48.101562 52.9375 -43.8125 C 55.132812 -39.53125 56.234375 -34.203125 56.234375 -27.828125 C 56.234375 -21.460938 55.132812 -16.132812 52.9375 -11.84375 C 50.738281 -7.550781 47.695312 -4.367188 43.8125 -2.296875 C 39.9375 -0.234375 35.445312 0.796875 30.34375 0.796875 Z M 30.34375 -8.75 C 35.0625 -8.75 38.664062 -10.265625 41.15625 -13.296875 C 43.644531 -16.335938 44.890625 -21.179688 44.890625 -27.828125 C 44.890625 -34.472656 43.644531 -39.316406 41.15625 -42.359375 C 38.664062 -45.410156 35.0625 -46.9375 30.34375 -46.9375 C 25.59375 -46.9375 21.96875 -45.410156 19.46875 -42.359375 C 16.96875 -39.316406 15.71875 -34.472656 15.71875 -27.828125 C 15.71875 -21.179688 16.96875 -16.335938 19.46875 -13.296875 C 21.96875 -10.265625 25.59375 -8.75 30.34375 -8.75 Z M 30.34375 -8.75 "/></g></g><g style="fill:#ffffff;fill-opacity:1;"><g transform="translate(391.37195, 535.610463)"><path style="stroke:none" d="M 26.65625 -22.390625 L 3.3125 -22.390625 L 3.3125 -31.671875 L 26.65625 -31.671875 Z M 26.65625 -22.390625 "/></g><g transform="translate(421.406921, 535.610463)"><path style="stroke:none" d="M 17.328125 0 L 7.234375 0 L 7.234375 -55.65625 L 21.625 -55.65625 L 35.703125 -14.734375 L 36.515625 -14.734375 L 50.515625 -55.65625 L 64.5625 -55.65625 L 64.5625 0 L 54.140625 0 L 54.140625 -36.78125 L 53.1875 -36.921875 L 40.3125 0 L 31.140625 0 L 18.28125 -36.921875 L 17.328125 -36.78125 Z M 17.328125 0 "/></g><g transform="translate(493.239607, 535.610463)"><path style="stroke:none" d="M 53.40625 0 L 41.84375 0 L 37.65625 -12.828125 L 16.328125 -12.828125 L 12.140625 0 L 0.84375 0 L 20.0625 -55.65625 L 34.1875 -55.65625 Z M 26.453125 -44.046875 L 19.296875 -22.078125 L 34.609375 -22.078125 L 27.40625 -44.046875 Z M 26.453125 -44.046875 "/></g></g><g style="fill:#ffffff;fill-opacity:1;"><g transform="translate(542.536545, 535.610463)"><path style="stroke:none" d="M 44.625 -55.65625 L 44.625 -46.40625 L 28.546875 -46.40625 L 28.546875 0 L 17.59375 0 L 17.59375 -46.40625 L 1.515625 -46.40625 L 1.515625 -55.65625 Z M 44.625 -55.65625 "/></g><g transform="translate(588.673914, 535.610463)"><path style="stroke:none" d="M 18.234375 -24.4375 L 18.234375 -9.21875 L 44.8125 -9.21875 L 44.8125 0 L 7.234375 0 L 7.234375 -55.65625 L 44.203125 -55.65625 L 44.203125 -46.453125 L 18.234375 -46.453125 L 18.234375 -33.421875 L 40.921875 -33.421875 L 40.921875 -24.4375 Z M 18.234375 -24.4375 "/></g></g></g></svg>